<svg width="1553" height="1247" viewBox="0 0 1553 1247" fill="none" xmlns="http://www.w3.org/2000/svg">
<g filter="url(#filter0_f_40_4)">
<circle cx="771" cy="643" r="195" fill="url(#paint0_diamond_40_4)" fill-opacity="0.8"/>
</g>
<g filter="url(#filter1_f_40_4)">
<path d="M1264 646C1264 902.812 1045.74 1111 776.5 1111C507.261 1111 289 902.812 289 646C289 389.188 507.261 181 776.5 181C1045.74 181 1264 389.188 1264 646ZM381.263 646C381.263 854.209 558.216 1023 776.5 1023C994.784 1023 1171.74 854.209 1171.74 646C1171.74 437.791 994.784 269.004 776.5 269.004C558.216 269.004 381.263 437.791 381.263 646Z" fill="url(#paint1_linear_40_4)" fill-opacity="0.8"/>
</g>
<defs>
<filter id="filter0_f_40_4" x="450" y="322" width="642" height="642" filterUnits="userSpaceOnUse" color-interpolation-filters="sRGB">
<feFlood flood-opacity="0" result="BackgroundImageFix"/>
<feBlend mode="normal" in="SourceGraphic" in2="BackgroundImageFix" result="shape"/>
<feGaussianBlur stdDeviation="63" result="effect1_foregroundBlur_40_4"/>
</filter>
<filter id="filter1_f_40_4" x="163" y="55" width="1227" height="1182" filterUnits="userSpaceOnUse" color-interpolation-filters="sRGB">
<feFlood flood-opacity="0" result="BackgroundImageFix"/>
<feBlend mode="normal" in="SourceGraphic" in2="BackgroundImageFix" result="shape"/>
<feGaussianBlur stdDeviation="63" result="effect1_foregroundBlur_40_4"/>
</filter>
<radialGradient id="paint0_diamond_40_4" cx="0" cy="0" r="1" gradientUnits="userSpaceOnUse" gradientTransform="translate(771 643) rotate(90) scale(137.622 121.529)">
<stop offset="0.565625" stop-color="#178CCD" stop-opacity="0.8"/>
</radialGradient>
<linearGradient id="paint1_linear_40_4" x1="777.052" y1="144.551" x2="776.5" y2="1111" gradientUnits="userSpaceOnUse">
<stop stop-color="#A697FF"/>
<stop offset="0.466667" stop-color="#D6417D"/>
<stop offset="0.773958" stop-color="#BF126F"/>
</linearGradient>
</defs>
</svg>
