<svg width="90" height="88" viewBox="0 0 90 88" fill="none" xmlns="http://www.w3.org/2000/svg">
<g clip-path="url(#clip0_14_28)">
<g filter="url(#filter0_f_14_28)">
<rect x="22" y="20" width="53" height="56" rx="20" fill="white" fill-opacity="0.8"/>
</g>
<g filter="url(#filter1_i_14_28)">
<rect x="17" y="14" width="56" height="56" rx="20" fill="#2B2B2B"/>
</g>
<g filter="url(#filter2_f_14_28)">
<rect x="23" y="21" width="43" height="43" rx="10" fill="url(#paint0_linear_14_28)"/>
</g>
<path d="M45 23C34.5076 23 26 31.7281 26 42.4835C26 51.0928 31.4455 58.3875 38.9946 60.9661C39.1005 60.9891 39.2086 61.0004 39.317 61C40.021 61 40.2924 60.4826 40.2924 60.033C40.2924 59.5665 40.2754 58.3451 40.267 56.7165C39.6385 56.8638 38.9955 56.9407 38.35 56.9455C34.6942 56.9455 33.8629 54.104 33.8629 54.104C32.9978 51.8562 31.7509 51.254 31.7509 51.254C30.0969 50.092 31.7424 50.058 31.8696 50.058H31.8781C33.7866 50.2277 34.7875 52.0768 34.7875 52.0768C35.7375 53.7393 37.0098 54.2058 38.1464 54.2058C38.898 54.1908 39.6379 54.0173 40.3179 53.6969C40.4875 52.4415 40.9795 51.5848 41.5223 51.0928C37.3067 50.6009 32.8705 48.9299 32.8705 41.4656C32.8705 39.3366 33.6085 37.5978 34.8214 36.2406C34.6263 35.7487 33.9732 33.7638 35.008 31.0835C35.1468 31.0503 35.2895 31.036 35.4321 31.0411C36.1192 31.0411 37.6714 31.304 40.233 33.0853C43.3456 32.2144 46.6374 32.2144 49.75 33.0853C52.3116 31.304 53.8638 31.0411 54.5509 31.0411C54.6935 31.036 54.8362 31.0503 54.975 31.0835C56.0098 33.7638 55.3567 35.7487 55.1616 36.2406C56.3746 37.6062 57.1125 39.3451 57.1125 41.4656C57.1125 48.9469 52.6679 50.5924 48.4353 51.0759C49.1138 51.6781 49.7246 52.8656 49.7246 54.6808C49.7246 57.2848 49.6991 59.3884 49.6991 60.0245C49.6991 60.4826 49.9621 61 50.6661 61C50.78 61.0005 50.8937 60.9891 51.0054 60.9661C58.5629 58.3875 64 51.0844 64 42.4835C64 31.7281 55.4924 23 45 23Z" fill="white"/>
<path d="M33.2949 77.752V80.875C33.1895 81.0312 33.0215 81.207 32.791 81.4023C32.5605 81.5938 32.2422 81.7617 31.8359 81.9062C31.4336 82.0469 30.9141 82.1172 30.2773 82.1172C29.7578 82.1172 29.2793 82.0273 28.8418 81.8477C28.4082 81.6641 28.0312 81.3984 27.7109 81.0508C27.3945 80.6992 27.1484 80.2734 26.9727 79.7734C26.8008 79.2695 26.7148 78.6992 26.7148 78.0625V77.4004C26.7148 76.7637 26.7891 76.1953 26.9375 75.6953C27.0898 75.1953 27.3125 74.7715 27.6055 74.4238C27.8984 74.0723 28.2578 73.8066 28.6836 73.627C29.1094 73.4434 29.5977 73.3516 30.1484 73.3516C30.8008 73.3516 31.3457 73.4648 31.7832 73.6914C32.2246 73.9141 32.5684 74.2227 32.8145 74.6172C33.0645 75.0117 33.2246 75.4609 33.2949 75.9648H32.1641C32.1133 75.6562 32.0117 75.375 31.8594 75.1211C31.7109 74.8672 31.498 74.6641 31.2207 74.5117C30.9434 74.3555 30.5859 74.2773 30.1484 74.2773C29.7539 74.2773 29.4121 74.3496 29.123 74.4941C28.834 74.6387 28.5957 74.8457 28.4082 75.1152C28.2207 75.3848 28.0801 75.7109 27.9863 76.0938C27.8965 76.4766 27.8516 76.9082 27.8516 77.3887V78.0625C27.8516 78.5547 27.9082 78.9941 28.0215 79.3809C28.1387 79.7676 28.3047 80.0977 28.5195 80.3711C28.7344 80.6406 28.9902 80.8457 29.2871 80.9863C29.5879 81.127 29.9199 81.1973 30.2832 81.1973C30.6855 81.1973 31.0117 81.1641 31.2617 81.0977C31.5117 81.0273 31.707 80.9453 31.8477 80.8516C31.9883 80.7539 32.0957 80.6621 32.1699 80.5762V78.666H30.1953V77.752H33.2949ZM36.1836 75.6602V82H35.0938V75.6602H36.1836ZM35.0117 73.9785C35.0117 73.8027 35.0645 73.6543 35.1699 73.5332C35.2793 73.4121 35.4395 73.3516 35.6504 73.3516C35.8574 73.3516 36.0156 73.4121 36.125 73.5332C36.2383 73.6543 36.2949 73.8027 36.2949 73.9785C36.2949 74.1465 36.2383 74.291 36.125 74.4121C36.0156 74.5293 35.8574 74.5879 35.6504 74.5879C35.4395 74.5879 35.2793 74.5293 35.1699 74.4121C35.0645 74.291 35.0117 74.1465 35.0117 73.9785ZM40.5781 75.6602V76.4922H37.1504V75.6602H40.5781ZM38.3105 74.1191H39.3945V80.4297C39.3945 80.6445 39.4277 80.8066 39.4941 80.916C39.5605 81.0254 39.6465 81.0977 39.752 81.1328C39.8574 81.168 39.9707 81.1855 40.0918 81.1855C40.1816 81.1855 40.2754 81.1777 40.373 81.1621C40.4746 81.1426 40.5508 81.127 40.6016 81.1152L40.6074 82C40.5215 82.0273 40.4082 82.0527 40.2676 82.0762C40.1309 82.1035 39.9648 82.1172 39.7695 82.1172C39.5039 82.1172 39.2598 82.0645 39.0371 81.959C38.8145 81.8535 38.6367 81.6777 38.5039 81.4316C38.375 81.1816 38.3105 80.8457 38.3105 80.4238V74.1191ZM47.5859 77.1367V78.0566H42.9688V77.1367H47.5859ZM43.1445 73.4688V82H42.0137V73.4688H43.1445ZM48.5703 73.4688V82H47.4453V73.4688H48.5703ZM54.2949 80.5352V75.6602H55.3848V82H54.3477L54.2949 80.5352ZM54.5 79.1992L54.9512 79.1875C54.9512 79.6094 54.9062 80 54.8164 80.3594C54.7305 80.7148 54.5898 81.0234 54.3945 81.2852C54.1992 81.5469 53.9434 81.752 53.627 81.9004C53.3105 82.0449 52.9258 82.1172 52.4727 82.1172C52.1641 82.1172 51.8809 82.0723 51.623 81.9824C51.3691 81.8926 51.1504 81.7539 50.9668 81.5664C50.7832 81.3789 50.6406 81.1348 50.5391 80.834C50.4414 80.5332 50.3926 80.1719 50.3926 79.75V75.6602H51.4766V79.7617C51.4766 80.0469 51.5078 80.2832 51.5703 80.4707C51.6367 80.6543 51.7246 80.8008 51.834 80.9102C51.9473 81.0156 52.0723 81.0898 52.209 81.1328C52.3496 81.1758 52.4941 81.1973 52.6426 81.1973C53.1035 81.1973 53.4688 81.1094 53.7383 80.9336C54.0078 80.7539 54.2012 80.5137 54.3184 80.2129C54.4395 79.9082 54.5 79.5703 54.5 79.1992ZM57.0312 73H58.1211V80.7695L58.0273 82H57.0312V73ZM62.4043 78.7773V78.9004C62.4043 79.3613 62.3496 79.7891 62.2402 80.1836C62.1309 80.5742 61.9707 80.9141 61.7598 81.2031C61.5488 81.4922 61.291 81.7168 60.9863 81.877C60.6816 82.0371 60.332 82.1172 59.9375 82.1172C59.5352 82.1172 59.1816 82.0488 58.877 81.9121C58.5762 81.7715 58.3223 81.5703 58.1152 81.3086C57.9082 81.0469 57.7422 80.7305 57.6172 80.3594C57.4961 79.9883 57.4121 79.5703 57.3652 79.1055V78.5664C57.4121 78.0977 57.4961 77.6777 57.6172 77.3066C57.7422 76.9355 57.9082 76.6191 58.1152 76.3574C58.3223 76.0918 58.5762 75.8906 58.877 75.7539C59.1777 75.6133 59.5273 75.543 59.9258 75.543C60.3242 75.543 60.6777 75.6211 60.9863 75.7773C61.2949 75.9297 61.5527 76.1484 61.7598 76.4336C61.9707 76.7188 62.1309 77.0605 62.2402 77.459C62.3496 77.8535 62.4043 78.293 62.4043 78.7773ZM61.3145 78.9004V78.7773C61.3145 78.4609 61.2852 78.1641 61.2266 77.8867C61.168 77.6055 61.0742 77.3594 60.9453 77.1484C60.8164 76.9336 60.6465 76.7656 60.4355 76.6445C60.2246 76.5195 59.9648 76.457 59.6562 76.457C59.3828 76.457 59.1445 76.5039 58.9414 76.5977C58.7422 76.6914 58.5723 76.8184 58.4316 76.9785C58.291 77.1348 58.1758 77.3145 58.0859 77.5176C58 77.7168 57.9355 77.9238 57.8926 78.1387V79.5508C57.9551 79.8242 58.0566 80.0879 58.1973 80.3418C58.3418 80.5918 58.5332 80.7969 58.7715 80.957C59.0137 81.1172 59.3125 81.1973 59.668 81.1973C59.9609 81.1973 60.2109 81.1387 60.418 81.0215C60.6289 80.9004 60.7988 80.7344 60.9277 80.5234C61.0605 80.3125 61.1582 80.0684 61.2207 79.791C61.2832 79.5137 61.3145 79.2168 61.3145 78.9004Z" fill="white"/>
</g>
<defs>
<filter id="filter0_f_14_28" x="7" y="5" width="83" height="86" filterUnits="userSpaceOnUse" color-interpolation-filters="sRGB">
<feFlood flood-opacity="0" result="BackgroundImageFix"/>
<feBlend mode="normal" in="SourceGraphic" in2="BackgroundImageFix" result="shape"/>
<feGaussianBlur stdDeviation="7.5" result="effect1_foregroundBlur_14_28"/>
</filter>
<filter id="filter1_i_14_28" x="15" y="10" width="58" height="60" filterUnits="userSpaceOnUse" color-interpolation-filters="sRGB">
<feFlood flood-opacity="0" result="BackgroundImageFix"/>
<feBlend mode="normal" in="SourceGraphic" in2="BackgroundImageFix" result="shape"/>
<feColorMatrix in="SourceAlpha" type="matrix" values="0 0 0 0 0 0 0 0 0 0 0 0 0 0 0 0 0 0 127 0" result="hardAlpha"/>
<feOffset dx="-2" dy="-4"/>
<feGaussianBlur stdDeviation="3"/>
<feComposite in2="hardAlpha" operator="arithmetic" k2="-1" k3="1"/>
<feColorMatrix type="matrix" values="0 0 0 0 0 0 0 0 0 0 0 0 0 0 0 0 0 0 0.25 0"/>
<feBlend mode="normal" in2="shape" result="effect1_innerShadow_14_28"/>
</filter>
<filter id="filter2_f_14_28" x="15" y="13" width="59" height="59" filterUnits="userSpaceOnUse" color-interpolation-filters="sRGB">
<feFlood flood-opacity="0" result="BackgroundImageFix"/>
<feBlend mode="normal" in="SourceGraphic" in2="BackgroundImageFix" result="shape"/>
<feGaussianBlur stdDeviation="4" result="effect1_foregroundBlur_14_28"/>
</filter>
<linearGradient id="paint0_linear_14_28" x1="18" y1="19.5" x2="48.5" y2="49" gradientUnits="userSpaceOnUse">
<stop stop-color="white"/>
<stop offset="0.711458" stop-color="white" stop-opacity="0"/>
</linearGradient>
<clipPath id="clip0_14_28">
<rect width="90" height="88" rx="20" fill="white"/>
</clipPath>
</defs>
</svg>
