<svg width="94" height="94" viewBox="0 0 94 94" fill="none" xmlns="http://www.w3.org/2000/svg">
<g clip-path="url(#clip0_14_2)">
<g filter="url(#filter0_f_14_2)">
<rect x="22" y="23" width="56" height="56" rx="20" fill="url(#paint0_linear_14_2)" fill-opacity="0.8"/>
<rect x="22" y="23" width="56" height="56" rx="20" fill="url(#paint1_linear_14_2)" fill-opacity="0.8"/>
</g>
<g filter="url(#filter1_i_14_2)">
<rect x="19" y="19" width="56" height="56" rx="20" fill="url(#paint2_linear_14_2)"/>
<rect x="19" y="19" width="56" height="56" rx="20" fill="url(#paint3_linear_14_2)"/>
</g>
<rect x="29" y="29" width="36" height="36" rx="9" stroke="white" stroke-width="2"/>
<path d="M57 46.5C57 51.7467 52.7467 56 47.5 56C42.2533 56 38 51.7467 38 46.5C38 41.2533 42.2533 37 47.5 37C52.7467 37 57 41.2533 57 46.5ZM39.9 46.5C39.9 50.6974 43.3026 54.1 47.5 54.1C51.6974 54.1 55.1 50.6974 55.1 46.5C55.1 42.3026 51.6974 38.9 47.5 38.9C43.3026 38.9 39.9 42.3026 39.9 46.5Z" fill="white"/>
<circle cx="58.5" cy="36.5" r="1.5" fill="white"/>
<path d="M24.2031 79.4688V88H23.0723V79.4688H24.2031ZM27.1797 83.0137V88H26.0957V81.6602H27.1211L27.1797 83.0137ZM26.9219 84.5898L26.4707 84.5723C26.4746 84.1387 26.5391 83.7383 26.6641 83.3711C26.7891 83 26.9648 82.6777 27.1914 82.4043C27.418 82.1309 27.6875 81.9199 28 81.7715C28.3164 81.6191 28.666 81.543 29.0488 81.543C29.3613 81.543 29.6426 81.5859 29.8926 81.6719C30.1426 81.7539 30.3555 81.8867 30.5312 82.0703C30.7109 82.2539 30.8477 82.4922 30.9414 82.7852C31.0352 83.0742 31.082 83.4277 31.082 83.8457V88H29.9922V83.834C29.9922 83.502 29.9434 83.2363 29.8457 83.0371C29.748 82.834 29.6055 82.6875 29.418 82.5977C29.2305 82.5039 29 82.457 28.7266 82.457C28.457 82.457 28.2109 82.5137 27.9883 82.627C27.7695 82.7402 27.5801 82.8965 27.4199 83.0957C27.2637 83.2949 27.1406 83.5234 27.0508 83.7812C26.9648 84.0352 26.9219 84.3047 26.9219 84.5898ZM36.4199 86.3184C36.4199 86.1621 36.3848 86.0176 36.3145 85.8848C36.248 85.748 36.1094 85.625 35.8984 85.5156C35.6914 85.4023 35.3789 85.3047 34.9609 85.2227C34.6094 85.1484 34.291 85.0605 34.0059 84.959C33.7246 84.8574 33.4844 84.7344 33.2852 84.5898C33.0898 84.4453 32.9395 84.2754 32.834 84.0801C32.7285 83.8848 32.6758 83.6562 32.6758 83.3945C32.6758 83.1445 32.7305 82.9082 32.8398 82.6855C32.9531 82.4629 33.1113 82.2656 33.3145 82.0938C33.5215 81.9219 33.7695 81.7871 34.0586 81.6895C34.3477 81.5918 34.6699 81.543 35.0254 81.543C35.5332 81.543 35.9668 81.6328 36.3262 81.8125C36.6855 81.9922 36.9609 82.2324 37.1523 82.5332C37.3438 82.8301 37.4395 83.1602 37.4395 83.5234H36.3555C36.3555 83.3477 36.3027 83.1777 36.1973 83.0137C36.0957 82.8457 35.9453 82.707 35.7461 82.5977C35.5508 82.4883 35.3105 82.4336 35.0254 82.4336C34.7246 82.4336 34.4805 82.4805 34.293 82.5742C34.1094 82.6641 33.9746 82.7793 33.8887 82.9199C33.8066 83.0605 33.7656 83.209 33.7656 83.3652C33.7656 83.4824 33.7852 83.5879 33.8242 83.6816C33.8672 83.7715 33.9414 83.8555 34.0469 83.9336C34.1523 84.0078 34.3008 84.0781 34.4922 84.1445C34.6836 84.2109 34.9277 84.2773 35.2246 84.3438C35.7441 84.4609 36.1719 84.6016 36.5078 84.7656C36.8438 84.9297 37.0938 85.1309 37.2578 85.3691C37.4219 85.6074 37.5039 85.8965 37.5039 86.2363C37.5039 86.5137 37.4453 86.7676 37.3281 86.998C37.2148 87.2285 37.0488 87.4277 36.8301 87.5957C36.6152 87.7598 36.3574 87.8887 36.0566 87.9824C35.7598 88.0723 35.4258 88.1172 35.0547 88.1172C34.4961 88.1172 34.0234 88.0176 33.6367 87.8184C33.25 87.6191 32.957 87.3613 32.7578 87.0449C32.5586 86.7285 32.459 86.3945 32.459 86.043H33.5488C33.5645 86.3398 33.6504 86.5762 33.8066 86.752C33.9629 86.9238 34.1543 87.0469 34.3809 87.1211C34.6074 87.1914 34.832 87.2266 35.0547 87.2266C35.3516 87.2266 35.5996 87.1875 35.7988 87.1094C36.002 87.0312 36.1562 86.9238 36.2617 86.7871C36.3672 86.6504 36.4199 86.4941 36.4199 86.3184ZM41.582 81.6602V82.4922H38.1543V81.6602H41.582ZM39.3145 80.1191H40.3984V86.4297C40.3984 86.6445 40.4316 86.8066 40.498 86.916C40.5645 87.0254 40.6504 87.0977 40.7559 87.1328C40.8613 87.168 40.9746 87.1855 41.0957 87.1855C41.1855 87.1855 41.2793 87.1777 41.377 87.1621C41.4785 87.1426 41.5547 87.127 41.6055 87.1152L41.6113 88C41.5254 88.0273 41.4121 88.0527 41.2715 88.0762C41.1348 88.1035 40.9688 88.1172 40.7734 88.1172C40.5078 88.1172 40.2637 88.0645 40.041 87.959C39.8184 87.8535 39.6406 87.6777 39.5078 87.4316C39.3789 87.1816 39.3145 86.8457 39.3145 86.4238V80.1191ZM46.5918 86.916V83.6523C46.5918 83.4023 46.541 83.1855 46.4395 83.002C46.3418 82.8145 46.1934 82.6699 45.9941 82.5684C45.7949 82.4668 45.5488 82.416 45.2559 82.416C44.9824 82.416 44.7422 82.4629 44.5352 82.5566C44.332 82.6504 44.1719 82.7734 44.0547 82.9258C43.9414 83.0781 43.8848 83.2422 43.8848 83.418H42.8008C42.8008 83.1914 42.8594 82.9668 42.9766 82.7441C43.0938 82.5215 43.2617 82.3203 43.4805 82.1406C43.7031 81.957 43.9688 81.8125 44.2773 81.707C44.5898 81.5977 44.9375 81.543 45.3203 81.543C45.7812 81.543 46.1875 81.6211 46.5391 81.7773C46.8945 81.9336 47.1719 82.1699 47.3711 82.4863C47.5742 82.7988 47.6758 83.1914 47.6758 83.6641V86.6172C47.6758 86.8281 47.6934 87.0527 47.7285 87.291C47.7676 87.5293 47.8242 87.7344 47.8984 87.9062V88H46.7676C46.7129 87.875 46.6699 87.709 46.6387 87.502C46.6074 87.291 46.5918 87.0957 46.5918 86.916ZM46.7793 84.1562L46.791 84.918H45.6953C45.3867 84.918 45.1113 84.9434 44.8691 84.9941C44.627 85.041 44.4238 85.1133 44.2598 85.2109C44.0957 85.3086 43.9707 85.4316 43.8848 85.5801C43.7988 85.7246 43.7559 85.8945 43.7559 86.0898C43.7559 86.2891 43.8008 86.4707 43.8906 86.6348C43.9805 86.7988 44.1152 86.9297 44.2949 87.0273C44.4785 87.1211 44.7031 87.168 44.9688 87.168C45.3008 87.168 45.5938 87.0977 45.8477 86.957C46.1016 86.8164 46.3027 86.6445 46.4512 86.4414C46.6035 86.2383 46.6855 86.041 46.6973 85.8496L47.1602 86.3711C47.1328 86.5352 47.0586 86.7168 46.9375 86.916C46.8164 87.1152 46.6543 87.3066 46.4512 87.4902C46.252 87.6699 46.0137 87.8203 45.7363 87.9414C45.4629 88.0586 45.1543 88.1172 44.8105 88.1172C44.3809 88.1172 44.0039 88.0332 43.6797 87.8652C43.3594 87.6973 43.1094 87.4727 42.9297 87.1914C42.7539 86.9062 42.666 86.5879 42.666 86.2363C42.666 85.8965 42.7324 85.5977 42.8652 85.3398C42.998 85.0781 43.1895 84.8613 43.4395 84.6895C43.6895 84.5137 43.9902 84.3809 44.3418 84.291C44.6934 84.2012 45.0859 84.1562 45.5195 84.1562H46.7793ZM53.4883 81.6602H54.4727V87.8652C54.4727 88.4238 54.3594 88.9004 54.1328 89.2949C53.9062 89.6895 53.5898 89.9883 53.1836 90.1914C52.7812 90.3984 52.3164 90.502 51.7891 90.502C51.5703 90.502 51.3125 90.4668 51.0156 90.3965C50.7227 90.3301 50.4336 90.2148 50.1484 90.0508C49.8672 89.8906 49.6309 89.6738 49.4395 89.4004L50.0078 88.7559C50.2734 89.0762 50.5508 89.2988 50.8398 89.4238C51.1328 89.5488 51.4219 89.6113 51.707 89.6113C52.0508 89.6113 52.3477 89.5469 52.5977 89.418C52.8477 89.2891 53.041 89.0977 53.1777 88.8438C53.3184 88.5938 53.3887 88.2852 53.3887 87.918V83.0547L53.4883 81.6602ZM49.123 84.9004V84.7773C49.123 84.293 49.1797 83.8535 49.293 83.459C49.4102 83.0605 49.5762 82.7188 49.791 82.4336C50.0098 82.1484 50.2734 81.9297 50.582 81.7773C50.8906 81.6211 51.2383 81.543 51.625 81.543C52.0234 81.543 52.3711 81.6133 52.668 81.7539C52.9688 81.8906 53.2227 82.0918 53.4297 82.3574C53.6406 82.6191 53.8066 82.9355 53.9277 83.3066C54.0488 83.6777 54.1328 84.0977 54.1797 84.5664V85.1055C54.1367 85.5703 54.0527 85.9883 53.9277 86.3594C53.8066 86.7305 53.6406 87.0469 53.4297 87.3086C53.2227 87.5703 52.9688 87.7715 52.668 87.9121C52.3672 88.0488 52.0156 88.1172 51.6133 88.1172C51.2344 88.1172 50.8906 88.0371 50.582 87.877C50.2773 87.7168 50.0156 87.4922 49.7969 87.2031C49.5781 86.9141 49.4102 86.5742 49.293 86.1836C49.1797 85.7891 49.123 85.3613 49.123 84.9004ZM50.207 84.7773V84.9004C50.207 85.2168 50.2383 85.5137 50.3008 85.791C50.3672 86.0684 50.4668 86.3125 50.5996 86.5234C50.7363 86.7344 50.9102 86.9004 51.1211 87.0215C51.332 87.1387 51.584 87.1973 51.877 87.1973C52.2363 87.1973 52.5332 87.1211 52.7676 86.9688C53.002 86.8164 53.1875 86.6152 53.3242 86.3652C53.4648 86.1152 53.5742 85.8438 53.6523 85.5508V84.1387C53.6094 83.9238 53.543 83.7168 53.4531 83.5176C53.3672 83.3145 53.2539 83.1348 53.1133 82.9785C52.9766 82.8184 52.8066 82.6914 52.6035 82.5977C52.4004 82.5039 52.1621 82.457 51.8887 82.457C51.5918 82.457 51.3359 82.5195 51.1211 82.6445C50.9102 82.7656 50.7363 82.9336 50.5996 83.1484C50.4668 83.3594 50.3672 83.6055 50.3008 83.8867C50.2383 84.1641 50.207 84.4609 50.207 84.7773ZM59.8574 86.916V83.6523C59.8574 83.4023 59.8066 83.1855 59.7051 83.002C59.6074 82.8145 59.459 82.6699 59.2598 82.5684C59.0605 82.4668 58.8145 82.416 58.5215 82.416C58.248 82.416 58.0078 82.4629 57.8008 82.5566C57.5977 82.6504 57.4375 82.7734 57.3203 82.9258C57.207 83.0781 57.1504 83.2422 57.1504 83.418H56.0664C56.0664 83.1914 56.125 82.9668 56.2422 82.7441C56.3594 82.5215 56.5273 82.3203 56.7461 82.1406C56.9688 81.957 57.2344 81.8125 57.543 81.707C57.8555 81.5977 58.2031 81.543 58.5859 81.543C59.0469 81.543 59.4531 81.6211 59.8047 81.7773C60.1602 81.9336 60.4375 82.1699 60.6367 82.4863C60.8398 82.7988 60.9414 83.1914 60.9414 83.6641V86.6172C60.9414 86.8281 60.959 87.0527 60.9941 87.291C61.0332 87.5293 61.0898 87.7344 61.1641 87.9062V88H60.0332C59.9785 87.875 59.9355 87.709 59.9043 87.502C59.873 87.291 59.8574 87.0957 59.8574 86.916ZM60.0449 84.1562L60.0566 84.918H58.9609C58.6523 84.918 58.377 84.9434 58.1348 84.9941C57.8926 85.041 57.6895 85.1133 57.5254 85.2109C57.3613 85.3086 57.2363 85.4316 57.1504 85.5801C57.0645 85.7246 57.0215 85.8945 57.0215 86.0898C57.0215 86.2891 57.0664 86.4707 57.1562 86.6348C57.2461 86.7988 57.3809 86.9297 57.5605 87.0273C57.7441 87.1211 57.9688 87.168 58.2344 87.168C58.5664 87.168 58.8594 87.0977 59.1133 86.957C59.3672 86.8164 59.5684 86.6445 59.7168 86.4414C59.8691 86.2383 59.9512 86.041 59.9629 85.8496L60.4258 86.3711C60.3984 86.5352 60.3242 86.7168 60.2031 86.916C60.082 87.1152 59.9199 87.3066 59.7168 87.4902C59.5176 87.6699 59.2793 87.8203 59.002 87.9414C58.7285 88.0586 58.4199 88.1172 58.0762 88.1172C57.6465 88.1172 57.2695 88.0332 56.9453 87.8652C56.625 87.6973 56.375 87.4727 56.1953 87.1914C56.0195 86.9062 55.9316 86.5879 55.9316 86.2363C55.9316 85.8965 55.998 85.5977 56.1309 85.3398C56.2637 85.0781 56.4551 84.8613 56.7051 84.6895C56.9551 84.5137 57.2559 84.3809 57.6074 84.291C57.959 84.2012 58.3516 84.1562 58.7852 84.1562H60.0449ZM63.7246 82.9199V88H62.6348V81.6602H63.666L63.7246 82.9199ZM63.502 84.5898L62.998 84.5723C63.002 84.1387 63.0586 83.7383 63.168 83.3711C63.2773 83 63.4395 82.6777 63.6543 82.4043C63.8691 82.1309 64.1367 81.9199 64.457 81.7715C64.7773 81.6191 65.1484 81.543 65.5703 81.543C65.8672 81.543 66.1406 81.5859 66.3906 81.6719C66.6406 81.7539 66.8574 81.8848 67.041 82.0645C67.2246 82.2441 67.3672 82.4746 67.4688 82.7559C67.5703 83.0371 67.6211 83.377 67.6211 83.7754V88H66.5371V83.8281C66.5371 83.4961 66.4805 83.2305 66.3672 83.0312C66.2578 82.832 66.1016 82.6875 65.8984 82.5977C65.6953 82.5039 65.457 82.457 65.1836 82.457C64.8633 82.457 64.5957 82.5137 64.3809 82.627C64.166 82.7402 63.9941 82.8965 63.8652 83.0957C63.7363 83.2949 63.6426 83.5234 63.584 83.7812C63.5293 84.0352 63.502 84.3047 63.502 84.5898ZM67.6094 83.9922L66.8828 84.2148C66.8867 83.8672 66.9434 83.5332 67.0527 83.2129C67.166 82.8926 67.3281 82.6074 67.5391 82.3574C67.7539 82.1074 68.0176 81.9102 68.3301 81.7656C68.6426 81.6172 69 81.543 69.4023 81.543C69.7422 81.543 70.043 81.5879 70.3047 81.6777C70.5703 81.7676 70.793 81.9062 70.9727 82.0938C71.1562 82.2773 71.2949 82.5137 71.3887 82.8027C71.4824 83.0918 71.5293 83.4355 71.5293 83.834V88H70.4395V83.8223C70.4395 83.4668 70.3828 83.1914 70.2695 82.9961C70.1602 82.7969 70.0039 82.6582 69.8008 82.5801C69.6016 82.498 69.3633 82.457 69.0859 82.457C68.8477 82.457 68.6367 82.498 68.4531 82.5801C68.2695 82.6621 68.1152 82.7754 67.9902 82.9199C67.8652 83.0605 67.7695 83.2227 67.7031 83.4062C67.6406 83.5898 67.6094 83.7852 67.6094 83.9922Z" fill="white"/>
</g>
<defs>
<filter id="filter0_f_14_2" x="4" y="5" width="92" height="92" filterUnits="userSpaceOnUse" color-interpolation-filters="sRGB">
<feFlood flood-opacity="0" result="BackgroundImageFix"/>
<feBlend mode="normal" in="SourceGraphic" in2="BackgroundImageFix" result="shape"/>
<feGaussianBlur stdDeviation="9" result="effect1_foregroundBlur_14_2"/>
</filter>
<filter id="filter1_i_14_2" x="17" y="15" width="58" height="60" filterUnits="userSpaceOnUse" color-interpolation-filters="sRGB">
<feFlood flood-opacity="0" result="BackgroundImageFix"/>
<feBlend mode="normal" in="SourceGraphic" in2="BackgroundImageFix" result="shape"/>
<feColorMatrix in="SourceAlpha" type="matrix" values="0 0 0 0 0 0 0 0 0 0 0 0 0 0 0 0 0 0 127 0" result="hardAlpha"/>
<feOffset dx="-2" dy="-4"/>
<feGaussianBlur stdDeviation="3"/>
<feComposite in2="hardAlpha" operator="arithmetic" k2="-1" k3="1"/>
<feColorMatrix type="matrix" values="0 0 0 0 0 0 0 0 0 0 0 0 0 0 0 0 0 0 0.25 0"/>
<feBlend mode="normal" in2="shape" result="effect1_innerShadow_14_2"/>
</filter>
<linearGradient id="paint0_linear_14_2" x1="22" y1="23" x2="78" y2="79" gradientUnits="userSpaceOnUse">
<stop offset="0.019567" stop-color="#6000FE"/>
<stop offset="0.419792" stop-color="#D10A8A"/>
<stop offset="0.747917" stop-color="#FF0A0A"/>
</linearGradient>
<linearGradient id="paint1_linear_14_2" x1="78" y1="23" x2="22" y2="79" gradientUnits="userSpaceOnUse">
<stop offset="0.505363" stop-color="#8804D8" stop-opacity="0.03"/>
<stop offset="0.669792" stop-color="#E2941E" stop-opacity="0.475246"/>
<stop offset="0.841667" stop-color="#FFD600"/>
</linearGradient>
<linearGradient id="paint2_linear_14_2" x1="19" y1="19" x2="75" y2="75" gradientUnits="userSpaceOnUse">
<stop offset="0.019567" stop-color="#6000FE"/>
<stop offset="0.419792" stop-color="#D10A8A"/>
<stop offset="0.747917" stop-color="#FF0A0A"/>
</linearGradient>
<linearGradient id="paint3_linear_14_2" x1="75" y1="19" x2="19" y2="75" gradientUnits="userSpaceOnUse">
<stop offset="0.505363" stop-color="#8804D8" stop-opacity="0.03"/>
<stop offset="0.669792" stop-color="#E2941E" stop-opacity="0.475246"/>
<stop offset="0.841667" stop-color="#FFD600"/>
</linearGradient>
<clipPath id="clip0_14_2">
<rect width="94" height="94" rx="25" fill="white"/>
</clipPath>
</defs>
</svg>
