<svg width="90" height="88" viewBox="0 0 90 88" fill="none" xmlns="http://www.w3.org/2000/svg">
<g clip-path="url(#clip0_14_21)">
<g filter="url(#filter0_f_14_21)">
<rect x="24" y="24" width="50" height="50" rx="20" fill="#1F4CBF"/>
</g>
<g filter="url(#filter1_i_14_21)">
<rect x="17" y="14" width="56" height="56" rx="20" fill="#1F4CBF"/>
</g>
<g filter="url(#filter2_f_14_21)">
<rect x="22" y="19" width="46" height="46" rx="18" fill="url(#paint0_linear_14_21)"/>
</g>
<path d="M34.5713 35.584V62H26.9297V35.584H34.5713ZM26.4658 28.748C26.4658 27.6413 26.8564 26.738 27.6377 26.0381C28.4189 25.3219 29.4443 24.9639 30.7139 24.9639C31.9834 24.9639 33.0088 25.3219 33.79 26.0381C34.5876 26.738 34.9863 27.6413 34.9863 28.748C34.9863 29.8385 34.5876 30.7419 33.79 31.458C33.0088 32.1579 31.9834 32.5078 30.7139 32.5078C29.4443 32.5078 28.4189 32.1579 27.6377 31.458C26.8564 30.7419 26.4658 29.8385 26.4658 28.748ZM47.5352 41.2236V62H39.8936V35.584H47.0713L47.5352 41.2236ZM46.5342 47.8643L44.6299 47.9131C44.6299 45.9274 44.874 44.1452 45.3623 42.5664C45.8506 40.9876 46.5423 39.6449 47.4375 38.5381C48.349 37.415 49.4313 36.5605 50.6846 35.9746C51.9541 35.3887 53.3538 35.0957 54.8838 35.0957C56.1208 35.0957 57.252 35.2747 58.2773 35.6328C59.3027 35.9909 60.1816 36.5687 60.9141 37.3662C61.6628 38.1475 62.2324 39.1891 62.623 40.4912C63.0137 41.777 63.209 43.3639 63.209 45.252V62H55.543V45.2275C55.543 44.1208 55.3883 43.2663 55.0791 42.6641C54.7699 42.0618 54.3141 41.6387 53.7119 41.3945C53.126 41.1504 52.4098 41.0283 51.5635 41.0283C50.6683 41.0283 49.9033 41.2074 49.2686 41.5654C48.6338 41.9072 48.113 42.3874 47.7061 43.0059C47.2992 43.6243 46.998 44.3486 46.8027 45.1787C46.6237 46.0088 46.5342 46.904 46.5342 47.8643Z" fill="white"/>
<path d="M28.1641 81.0801V82H23.8984V81.0801H28.1641ZM24.1211 73.4688V82H22.9902V73.4688H24.1211ZM30.4727 75.6602V82H29.3828V75.6602H30.4727ZM29.3008 73.9785C29.3008 73.8027 29.3535 73.6543 29.459 73.5332C29.5684 73.4121 29.7285 73.3516 29.9395 73.3516C30.1465 73.3516 30.3047 73.4121 30.4141 73.5332C30.5273 73.6543 30.584 73.8027 30.584 73.9785C30.584 74.1465 30.5273 74.291 30.4141 74.4121C30.3047 74.5293 30.1465 74.5879 29.9395 74.5879C29.7285 74.5879 29.5684 74.5293 29.459 74.4121C29.3535 74.291 29.3008 74.1465 29.3008 73.9785ZM33.2969 77.0137V82H32.2129V75.6602H33.2383L33.2969 77.0137ZM33.0391 78.5898L32.5879 78.5723C32.5918 78.1387 32.6562 77.7383 32.7812 77.3711C32.9062 77 33.082 76.6777 33.3086 76.4043C33.5352 76.1309 33.8047 75.9199 34.1172 75.7715C34.4336 75.6191 34.7832 75.543 35.166 75.543C35.4785 75.543 35.7598 75.5859 36.0098 75.6719C36.2598 75.7539 36.4727 75.8867 36.6484 76.0703C36.8281 76.2539 36.9648 76.4922 37.0586 76.7852C37.1523 77.0742 37.1992 77.4277 37.1992 77.8457V82H36.1094V77.834C36.1094 77.502 36.0605 77.2363 35.9629 77.0371C35.8652 76.834 35.7227 76.6875 35.5352 76.5977C35.3477 76.5039 35.1172 76.457 34.8438 76.457C34.5742 76.457 34.3281 76.5137 34.1055 76.627C33.8867 76.7402 33.6973 76.8965 33.5371 77.0957C33.3809 77.2949 33.2578 77.5234 33.168 77.7812C33.082 78.0352 33.0391 78.3047 33.0391 78.5898ZM39.9355 73V82H38.8457V73H39.9355ZM43.8086 75.6602L41.043 78.6191L39.4961 80.2246L39.4082 79.0703L40.5156 77.7461L42.4844 75.6602H43.8086ZM42.8184 82L40.5566 78.9766L41.1191 78.0098L44.0957 82H42.8184ZM47.4414 82.1172C47 82.1172 46.5996 82.043 46.2402 81.8945C45.8848 81.7422 45.5781 81.5293 45.3203 81.2559C45.0664 80.9824 44.8711 80.6582 44.7344 80.2832C44.5977 79.9082 44.5293 79.498 44.5293 79.0527V78.8066C44.5293 78.291 44.6055 77.832 44.7578 77.4297C44.9102 77.0234 45.1172 76.6797 45.3789 76.3984C45.6406 76.1172 45.9375 75.9043 46.2695 75.7598C46.6016 75.6152 46.9453 75.543 47.3008 75.543C47.7539 75.543 48.1445 75.6211 48.4727 75.7773C48.8047 75.9336 49.0762 76.1523 49.2871 76.4336C49.498 76.7109 49.6543 77.0391 49.7559 77.418C49.8574 77.793 49.9082 78.2031 49.9082 78.6484V79.1348H45.1738V78.25H48.8242V78.168C48.8086 77.8867 48.75 77.6133 48.6484 77.3477C48.5508 77.082 48.3945 76.8633 48.1797 76.6914C47.9648 76.5195 47.6719 76.4336 47.3008 76.4336C47.0547 76.4336 46.8281 76.4863 46.6211 76.5918C46.4141 76.6934 46.2363 76.8457 46.0879 77.0488C45.9395 77.252 45.8242 77.5 45.7422 77.793C45.6602 78.0859 45.6191 78.4238 45.6191 78.8066V79.0527C45.6191 79.3535 45.6602 79.6367 45.7422 79.9023C45.8281 80.1641 45.9512 80.3945 46.1113 80.5938C46.2754 80.793 46.4727 80.9492 46.7031 81.0625C46.9375 81.1758 47.2031 81.2324 47.5 81.2324C47.8828 81.2324 48.207 81.1543 48.4727 80.998C48.7383 80.8418 48.9707 80.6328 49.1699 80.3711L49.8262 80.8926C49.6895 81.0996 49.5156 81.2969 49.3047 81.4844C49.0938 81.6719 48.834 81.8242 48.5254 81.9414C48.2207 82.0586 47.8594 82.1172 47.4414 82.1172ZM55.1699 80.7695V73H56.2598V82H55.2637L55.1699 80.7695ZM50.9043 78.9004V78.7773C50.9043 78.293 50.9629 77.8535 51.0801 77.459C51.2012 77.0605 51.3711 76.7188 51.5898 76.4336C51.8125 76.1484 52.0762 75.9297 52.3809 75.7773C52.6895 75.6211 53.0332 75.543 53.4121 75.543C53.8105 75.543 54.1582 75.6133 54.4551 75.7539C54.7559 75.8906 55.0098 76.0918 55.2168 76.3574C55.4277 76.6191 55.5938 76.9355 55.7148 77.3066C55.8359 77.6777 55.9199 78.0977 55.9668 78.5664V79.1055C55.9238 79.5703 55.8398 79.9883 55.7148 80.3594C55.5938 80.7305 55.4277 81.0469 55.2168 81.3086C55.0098 81.5703 54.7559 81.7715 54.4551 81.9121C54.1543 82.0488 53.8027 82.1172 53.4004 82.1172C53.0293 82.1172 52.6895 82.0371 52.3809 81.877C52.0762 81.7168 51.8125 81.4922 51.5898 81.2031C51.3711 80.9141 51.2012 80.5742 51.0801 80.1836C50.9629 79.7891 50.9043 79.3613 50.9043 78.9004ZM51.9941 78.7773V78.9004C51.9941 79.2168 52.0254 79.5137 52.0879 79.791C52.1543 80.0684 52.2559 80.3125 52.3926 80.5234C52.5293 80.7344 52.7031 80.9004 52.9141 81.0215C53.125 81.1387 53.377 81.1973 53.6699 81.1973C54.0293 81.1973 54.3242 81.1211 54.5547 80.9688C54.7891 80.8164 54.9766 80.6152 55.1172 80.3652C55.2578 80.1152 55.3672 79.8438 55.4453 79.5508V78.1387C55.3984 77.9238 55.3301 77.7168 55.2402 77.5176C55.1543 77.3145 55.041 77.1348 54.9004 76.9785C54.7637 76.8184 54.5938 76.6914 54.3906 76.5977C54.1914 76.5039 53.9551 76.457 53.6816 76.457C53.3848 76.457 53.1289 76.5195 52.9141 76.6445C52.7031 76.7656 52.5293 76.9336 52.3926 77.1484C52.2559 77.3594 52.1543 77.6055 52.0879 77.8867C52.0254 78.1641 51.9941 78.4609 51.9941 78.7773ZM59.3242 73.4688V82H58.1934V73.4688H59.3242ZM62.3008 77.0137V82H61.2168V75.6602H62.2422L62.3008 77.0137ZM62.043 78.5898L61.5918 78.5723C61.5957 78.1387 61.6602 77.7383 61.7852 77.3711C61.9102 77 62.0859 76.6777 62.3125 76.4043C62.5391 76.1309 62.8086 75.9199 63.1211 75.7715C63.4375 75.6191 63.7871 75.543 64.1699 75.543C64.4824 75.543 64.7637 75.5859 65.0137 75.6719C65.2637 75.7539 65.4766 75.8867 65.6523 76.0703C65.832 76.2539 65.9688 76.4922 66.0625 76.7852C66.1562 77.0742 66.2031 77.4277 66.2031 77.8457V82H65.1133V77.834C65.1133 77.502 65.0645 77.2363 64.9668 77.0371C64.8691 76.834 64.7266 76.6875 64.5391 76.5977C64.3516 76.5039 64.1211 76.457 63.8477 76.457C63.5781 76.457 63.332 76.5137 63.1094 76.627C62.8906 76.7402 62.7012 76.8965 62.541 77.0957C62.3848 77.2949 62.2617 77.5234 62.1719 77.7812C62.0859 78.0352 62.043 78.3047 62.043 78.5898Z" fill="white"/>
</g>
<defs>
<filter id="filter0_f_14_21" x="1" y="1" width="96" height="96" filterUnits="userSpaceOnUse" color-interpolation-filters="sRGB">
<feFlood flood-opacity="0" result="BackgroundImageFix"/>
<feBlend mode="normal" in="SourceGraphic" in2="BackgroundImageFix" result="shape"/>
<feGaussianBlur stdDeviation="11.5" result="effect1_foregroundBlur_14_21"/>
</filter>
<filter id="filter1_i_14_21" x="15" y="10" width="58" height="60" filterUnits="userSpaceOnUse" color-interpolation-filters="sRGB">
<feFlood flood-opacity="0" result="BackgroundImageFix"/>
<feBlend mode="normal" in="SourceGraphic" in2="BackgroundImageFix" result="shape"/>
<feColorMatrix in="SourceAlpha" type="matrix" values="0 0 0 0 0 0 0 0 0 0 0 0 0 0 0 0 0 0 127 0" result="hardAlpha"/>
<feOffset dx="-2" dy="-4"/>
<feGaussianBlur stdDeviation="3"/>
<feComposite in2="hardAlpha" operator="arithmetic" k2="-1" k3="1"/>
<feColorMatrix type="matrix" values="0 0 0 0 0 0 0 0 0 0 0 0 0 0 0 0 0 0 0.25 0"/>
<feBlend mode="normal" in2="shape" result="effect1_innerShadow_14_21"/>
</filter>
<filter id="filter2_f_14_21" x="15" y="12" width="60" height="60" filterUnits="userSpaceOnUse" color-interpolation-filters="sRGB">
<feFlood flood-opacity="0" result="BackgroundImageFix"/>
<feBlend mode="normal" in="SourceGraphic" in2="BackgroundImageFix" result="shape"/>
<feGaussianBlur stdDeviation="3.5" result="effect1_foregroundBlur_14_21"/>
</filter>
<linearGradient id="paint0_linear_14_21" x1="18" y1="15.5" x2="45" y2="45" gradientUnits="userSpaceOnUse">
<stop stop-color="white"/>
<stop offset="1" stop-color="white" stop-opacity="0"/>
</linearGradient>
<clipPath id="clip0_14_21">
<rect width="90" height="88" rx="20" fill="white"/>
</clipPath>
</defs>
</svg>
