<svg width="78" height="77" viewBox="0 0 78 77" fill="none" xmlns="http://www.w3.org/2000/svg">
<path d="M61 60.5C58.7512 56.2604 53.8764 51.009 50.5923 48.6388C47.3083 46.2686 43.7006 45.0245 40.0415 45.0004C36.3824 44.9762 32.7673 46.1725 29.4689 48.4992C26.1704 50.8259 21.2747 56.2902 19 60.5L32.9269 71C33.6906 69.5865 35.3118 70.5363 36.4193 69.7551C37.5268 68.9738 38.7407 68.5721 39.9693 68.5802C41.1979 68.5884 42.4093 69.0061 43.512 69.8019C44.6147 70.5978 48.2854 68.3784 49.0405 69.8019L61 60.5Z" fill="white"/>
<g filter="url(#filter0_i_47_2)">
<path d="M74 38.5C74 57.5538 58.5538 73 39.5 73C20.4462 73 5 57.5538 5 38.5C5 19.4462 20.4462 4 39.5 4C58.5538 4 74 19.4462 74 38.5ZM10.5993 38.5C10.5993 54.4614 23.5386 67.4007 39.5 67.4007C55.4614 67.4007 68.4007 54.4614 68.4007 38.5C68.4007 22.5386 55.4614 9.59927 39.5 9.59927C23.5386 9.59927 10.5993 22.5386 10.5993 38.5Z" fill="white"/>
</g>
<circle cx="39.5" cy="31.5" r="13.5" fill="white"/>
<path d="M42 30.5C42 30.1717 41.9353 29.8466 41.8097 29.5433C41.6841 29.24 41.4999 28.9644 41.2678 28.7322C41.0356 28.5001 40.76 28.3159 40.4567 28.1903C40.1534 28.0647 39.8283 28 39.5 28C39.1717 28 38.8466 28.0647 38.5433 28.1903C38.24 28.3159 37.9644 28.5001 37.7322 28.7322C37.5001 28.9644 37.3159 29.24 37.1903 29.5433C37.0647 29.8466 37 30.1717 37 30.5L37.8854 30.5C37.8854 30.288 37.9271 30.078 38.0083 29.8821C38.0894 29.6862 38.2084 29.5082 38.3583 29.3583C38.5082 29.2084 38.6862 29.0894 38.8821 29.0083C39.078 28.9271 39.288 28.8854 39.5 28.8854C39.712 28.8854 39.922 28.9271 40.1179 29.0083C40.3138 29.0894 40.4918 29.2084 40.6417 29.3583C40.7916 29.5082 40.9106 29.6862 40.9917 29.8821C41.0729 30.078 41.1146 30.288 41.1146 30.5H42Z" fill="black"/>
<rect x="27.5" y="25.5" width="10" height="7" rx="1.5" fill="#4F4F4F" stroke="black"/>
<rect x="41.5" y="25.5" width="10" height="7" rx="1.5" fill="#4F4F4F" stroke="black"/>
<defs>
<filter id="filter0_i_47_2" x="5" y="4" width="69" height="71" filterUnits="userSpaceOnUse" color-interpolation-filters="sRGB">
<feFlood flood-opacity="0" result="BackgroundImageFix"/>
<feBlend mode="normal" in="SourceGraphic" in2="BackgroundImageFix" result="shape"/>
<feColorMatrix in="SourceAlpha" type="matrix" values="0 0 0 0 0 0 0 0 0 0 0 0 0 0 0 0 0 0 127 0" result="hardAlpha"/>
<feOffset dy="2"/>
<feGaussianBlur stdDeviation="1.5"/>
<feComposite in2="hardAlpha" operator="arithmetic" k2="-1" k3="1"/>
<feColorMatrix type="matrix" values="0 0 0 0 0 0 0 0 0 0 0 0 0 0 0 0 0 0 0.55 0"/>
<feBlend mode="normal" in2="shape" result="effect1_innerShadow_47_2"/>
</filter>
</defs>
</svg>
